PathFileType	4	(X/Y/Z)	14_coords_data.trc
DataRate	CameraRate	NumFrames	NumMarkers	Units	OrigDataRate	OrigDataStartFrame	OrigNumFrames
30.0	30.0	7	21	m	30.0	21	62
Frame#	Time	THUMB_TIP	THUMB_IP	THUMB_MCP	THUMB_CMC	INDEX_TIP	INDEX_DIP	INDEX_PIP	INDEX_MCP	MIDDLE_TIP	MIDDLE_DIP	MIDDLE_PIP	MIDDLE_MCP	RING_TIP	RING_DIP	RING_PIP	RING_MCP	PINKY_TIP	PINKY_DIP	PINKY_PIP	PINKY_MCP	WRIST
X1	Y1	Z1	X2	Y2	Z2	X3	Y3	Z3	X4	Y4	Z4	X5	Y5	Z5	X6	Y6	Z6	X7	Y7	Z7	X8	Y8	Z8	X9	Y9	Z9	X10	Y10	Z10	X11	Y11	Z11	X12	Y12	Z12	X13	Y13	Z13	X14	Y14	Z14	X15	Y15	Z15	X16	Y16	Z16	X17	Y17	Z17	X18	Y18	Z18	X19	Y19	Z19	X20	Y20	Z20	X21	Y21	Z21
20	0.6666666666666666	-0.03683629989624024	-0.03731880187988281	0.9436290283203125	-0.022863100051879883	-0.01669459915161133	0.9553259887695312	-0.01745009994506836	-0.002266540050506592	0.9798709716796875	-0.016714599609375	0.026723100662231446	1.0015999755859375	-0.004210209846496582	0.02377330017089844	0.9705789794921875	0.01077690029144287	0.029158199310302734	0.9593829956054688	0.011310999870300292	0.03226020050048828	0.9357109985351563	-0.024895299911499025	0.02338249969482422	0.9434320068359375	-0.0027322800159454343	0.03886589813232422	0.97756298828125	0.009156450271606446	0.046542701721191404	0.9698389892578125	0.012593799591064454	0.05434799957275391	0.944176025390625	-0.027396400451660155	0.04836000061035156	0.9414719848632812	-0.011262299537658692	0.051837898254394534	0.986323974609375	0.002335520029067993	0.061438899993896484	0.9787839965820313	0.007078479766845703	0.07293150329589844	0.956844970703125	-0.030589300155639647	0.06870439910888672	0.9514929809570313	-0.015222599983215332	0.0647876968383789	0.9925900268554687	-0.0031252000331878664	0.07412149810791016	0.9867839965820312	-0.00217165994644165	0.08448680114746093	0.9718400268554688	-0.03136689949035645	0.08363159942626953	0.9651309814453125	-0.0409286994934082	0.04791180038452148	1.0182999877929688
21	0.7	-0.03566699981689453	-0.03729069900512695	0.9430759887695312	-0.02182390022277832	-0.016598499298095704	0.9550050048828125	-0.016560699462890623	-0.002270580053329467	0.9796119995117187	-0.015738200187683106	0.026856800079345704	1.001489990234375	-0.003366060018539428	0.023612300872802736	0.9702650146484375	0.0118572998046875	0.029165700912475587	0.9591119995117188	0.012125900268554687	0.03231399917602539	0.9355709838867188	-0.024051700592041016	0.023369300842285157	0.9434400024414062	-0.001983109951019287	0.03882220077514648	0.97760302734375	0.009888890266418458	0.0465343017578125	0.9697009887695313	0.013413999557495117	0.054424400329589846	0.9439879760742188	-0.026554500579833985	0.04830839920043945	0.9412869873046875	-0.010433199882507325	0.051769901275634765	0.9862130126953125	0.00310302996635437	0.06148040008544922	0.9784290161132813	0.007873909950256348	0.07289009857177735	0.9567020263671875	-0.029845300674438476	0.06855799865722656	0.9513489990234375	-0.014424599647521973	0.06470130157470703	0.99272900390625	-0.0022675700187683103	0.0740521011352539	0.98668798828125	-0.001446849942207336	0.08441510009765625	0.9717670288085938	-0.030712799072265626	0.08355989837646484	0.9650070190429687	-0.040149501800537106	0.04773410034179688	1.017989990234375
22	0.7333333333333333	-0.03486420059204102	-0.03733539962768555	0.942656982421875	-0.02119309997558594	-0.016663700103759765	0.9544970092773437	-0.015848999977111818	-0.002330080032348633	0.9792979736328125	-0.015122799873352051	0.026522100448608397	1.0006799926757812	-0.0029159600734710695	0.02357609939575195	0.9702219848632813	0.012291299819946288	0.029057600021362304	0.958708984375	0.01256529998779297	0.032236400604248046	0.9351079711914062	-0.023634599685668944	0.023287599563598632	0.942947998046875	-0.001543429970741272	0.038680999755859376	0.9772030029296875	0.010405500411987305	0.04639559936523437	0.9693179931640625	0.013879799842834472	0.05430199813842773	0.943572021484375	-0.026161399841308594	0.0481525993347168	0.9410269775390625	-0.009807550430297851	0.05163249969482422	0.9857620239257813	0.003708379983901977	0.061407398223876954	0.9780159912109375	0.008269519805908203	0.07281400299072266	0.9563250122070313	-0.02934320068359375	0.06845950317382812	0.9510399780273437	-0.013972200393676758	0.06459140014648437	0.9922990112304687	-0.00179730999469757	0.07396929931640625	0.9863280029296875	-0.0009477069973945611	0.08434609985351563	0.9713350219726562	-0.030309099197387696	0.08337670135498047	0.964635986328125	-0.039560199737548825	0.04759170150756836	1.0174000244140624
23	0.7666666666666667	-0.03466379928588867	-0.037544200897216794	0.9421500244140625	-0.020954099655151368	-0.016913000106811522	0.953948974609375	-0.015592599868774414	-0.0026158299446105947	0.9786489868164062	-0.014771699905395508	0.02642609977722168	1.000469970703125	-0.002461970090866089	0.02332659912109375	0.9695789794921875	0.012525400161743165	0.028770999908447267	0.9581199951171875	0.012708200454711913	0.031985200881958005	0.934468994140625	-0.023417299270629882	0.023072200775146483	0.9424219970703125	-0.0011484500169754018	0.038451099395751955	0.9766859741210937	0.010746800422668457	0.04617459869384766	0.9686599731445312	0.01408310031890869	0.054077201843261716	0.942905029296875	-0.025989900588989256	0.04793659973144531	0.9404760131835938	-0.00950648021697998	0.05143220138549805	0.9851500244140625	0.004027239799499512	0.061045101165771484	0.9776240234375	0.008532959938049317	0.07258049774169922	0.9557139892578125	-0.029161300659179688	0.06820490264892579	0.9505139770507812	-0.013571100234985351	0.06426599884033203	0.991719970703125	-0.001436200022697448	0.07370020294189453	0.985697021484375	-0.000695794999599456	0.084068603515625	0.9708359985351562	-0.02997559928894043	0.08317359924316406	0.9642130126953125	-0.038912601470947265	0.04741109848022461	1.017219970703125
24	0.8	-0.03447800064086914	-0.03778390121459961	0.9416019897460938	-0.02073310089111328	-0.017118499755859374	0.9534580078125	-0.01534239959716797	-0.0027846200466156	0.9783460083007812	-0.014542099952697753	0.02626689910888672	1.0001099853515625	-0.002414580106735229	0.023038600921630858	0.969156982421875	0.012687000274658203	0.028441999435424806	0.9576920166015624	0.01287909984588623	0.0315221996307373	0.9339299926757813	-0.02315850067138672	0.02280120086669922	0.9419860229492187	-0.0008459920287132261	0.038194198608398434	0.9757570190429687	0.01091819953918457	0.045874900817871093	0.96818701171875	0.01433240032196045	0.05374340057373047	0.9421170043945313	-0.025836799621582033	0.047635799407958986	0.9400900268554687	-0.009237509727478027	0.05118040084838867	0.9845700073242187	0.004206200122833252	0.0608114013671875	0.976864013671875	0.00886124038696289	0.07225759887695313	0.9551710205078126	-0.02887700080871582	0.06798390197753906	0.950156982421875	-0.013358400344848633	0.06396329879760743	0.9910980224609375	-0.001208930015563964	0.07340229797363282	0.985219970703125	-0.00029263299703598	0.08373860168457031	0.9701920166015625	-0.029647300720214844	0.08292530059814453	0.9637529907226563	-0.0386427001953125	0.047215599060058594	1.01675
25	0.8333333333333334	-0.03423860168457031	-0.03786920166015625	0.9411649780273438	-0.020525600433349608	-0.017200599670410155	0.9529520263671875	-0.01510569953918457	-0.00297094988822937	0.9778460083007813	-0.01434160041809082	0.02590500068664551	0.9995419921875	-0.001925410032272338	0.022866500854492187	0.9687000122070313	0.013042699813842774	0.028326099395751952	0.9570809936523438	0.0131225004196167	0.03137980079650879	0.9336099853515625	-0.02285490036010742	0.02253700065612793	0.9416179809570312	-0.00066024500131607	0.03788240051269531	0.9754429931640625	0.011298199653625489	0.04560279846191406	0.96785302734375	0.014552300453186034	0.05347930145263672	0.9419520263671874	-0.025585100173950194	0.04740840148925781	0.9397050170898438	-0.009009090423583985	0.05093429946899414	0.9844140014648437	0.0044759101867675784	0.06057880020141602	0.9765579833984375	0.009042989730834962	0.07199009704589844	0.9548519897460938	-0.028563699722290038	0.06766829681396484	0.9495980224609375	-0.012847000122070313	0.06379240036010742	0.9907470092773437	-0.0009331330060958861	0.07314779663085938	0.9849910278320313	-7.9372197389602e-05	0.0835115966796875	0.9699180297851563	-0.029415800094604493	0.08264140319824219	0.9633889770507813	-0.03851499938964844	0.046981201171875	1.016469970703125
26	0.8666666666666667	-0.03417119979858398	-0.03807529830932617	0.9410250244140625	-0.02045429992675781	-0.017449899673461913	0.952760986328125	-0.015011300086975097	-0.003226030111312866	0.9774569702148438	-0.014185799598693847	0.02575709915161133	0.999344970703125	-0.001802610039710998	0.022662099838256837	0.9683729858398438	0.013199299812316894	0.02798539924621582	0.9569719848632813	0.013269900321960449	0.031083099365234373	0.9334249877929688	-0.0228533992767334	0.022299699783325196	0.9413660278320313	-0.00040486401319503703	0.03782300186157227	0.9753300170898438	0.011361300468444824	0.045409599304199216	0.9675289916992188	0.014688799858093262	0.0531510009765625	0.9416270141601563	-0.025445499420166016	0.04712799835205078	0.9394400024414062	-0.008866470336914062	0.05076139831542969	0.98402001953125	0.004691589832305909	0.06046860122680664	0.9762100219726563	0.009192370414733886	0.0717332992553711	0.9544819946289063	-0.028482700347900392	0.06743869781494141	0.949343994140625	-0.012756999969482421	0.06360309982299804	0.9904749755859374	-0.0007475709915161131	0.0729822998046875	0.9845869750976562	0.000128475993871688	0.08332759857177735	0.9695599975585938	-0.02918980026245117	0.08244879913330078	0.9631079711914062	-0.0384197998046875	0.046729400634765626	1.01602001953125
